<mxfile host="app.diagrams.net" modified="2024-05-06T04:11:01.541Z" agent="Mozilla/5.0 (Macintosh; Intel Mac OS X 10.15; rv:125.0) Gecko/20100101 Firefox/125.0" version="24.3.1" etag="wftft8BszYcMenm54d3Y" type="github">
  <diagram name="Page-1" id="HTUhq75xzCdrkmpdIbcB">
    <mxGraphModel>
      <root>
        <mxCell id="0" />
        <mxCell id="1" parent="0" />
      </root>
    </mxGraphModel>
  </diagram>
</mxfile>
